<svg width="14" height="14" viewBox="0 0 14 14" fill="none" xmlns="http://www.w3.org/2000/svg">
<g clip-path="url(#clip0_2_25)">
<path d="M5.83008 7.57909C6.08045 7.91381 6.39989 8.19077 6.76671 8.39119C7.13353 8.5916 7.53917 8.71078 7.9561 8.74064C8.37304 8.7705 8.79152 8.71034 9.18316 8.56425C9.5748 8.41816 9.93044 8.18954 10.226 7.89392L11.975 6.14489C12.506 5.59511 12.7998 4.85877 12.7932 4.09445C12.7865 3.33014 12.4799 2.59901 11.9395 2.05854C11.399 1.51807 10.6679 1.21149 9.90356 1.20485C9.13924 1.19821 8.4029 1.49203 7.85312 2.02303L6.85034 3.01997" stroke="#99A1AF" stroke-width="1.16602" stroke-linecap="round" stroke-linejoin="round"/>
<path d="M8.16211 6.41307C7.91174 6.07835 7.5923 5.80139 7.22548 5.60098C6.85865 5.40057 6.45302 5.28139 6.03608 5.25153C5.61915 5.22167 5.20067 5.28182 4.80903 5.42792C4.41739 5.57401 4.06175 5.80262 3.76623 6.09825L2.01721 7.84727C1.48621 8.39706 1.19239 9.1334 1.19903 9.89771C1.20567 10.662 1.51224 11.3932 2.05272 11.9336C2.59319 12.4741 3.32432 12.7807 4.08863 12.7873C4.85294 12.794 5.58929 12.5001 6.13907 11.9691L7.13602 10.9722" stroke="#99A1AF" stroke-width="1.16602" stroke-linecap="round" stroke-linejoin="round"/>
</g>
<defs>
<clipPath id="clip0_2_25">
<rect width="13.9922" height="13.9922" fill="white"/>
</clipPath>
</defs>
</svg>
